<mxfile host="app.diagrams.net" agent="Mozilla/5.0 (Windows NT 10.0; Win64; x64) AppleWebKit/537.36 (KHTML, like Gecko) Chrome/131.0.0.0 Safari/537.36" version="24.8.6">
  <diagram id="C5RBs43oDa-KdzZeNtuy" name="Page-1">
    <mxGraphModel dx="880" dy="508" grid="1" gridSize="10" guides="1" tooltips="1" connect="1" arrows="1" fold="1" page="1" pageScale="1" pageWidth="827" pageHeight="1169" math="0" shadow="0">
      <root>
        <mxCell id="WIyWlLk6GJQsqaUBKTNV-0" />
        <mxCell id="WIyWlLk6GJQsqaUBKTNV-1" parent="WIyWlLk6GJQsqaUBKTNV-0" />
        <mxCell id="69SYTwjT6Idp93URx5pY-3" value="" style="edgeStyle=orthogonalEdgeStyle;rounded=0;orthogonalLoop=1;jettySize=auto;html=1;" edge="1" parent="WIyWlLk6GJQsqaUBKTNV-1" source="69SYTwjT6Idp93URx5pY-0" target="69SYTwjT6Idp93URx5pY-2">
          <mxGeometry relative="1" as="geometry" />
        </mxCell>
        <mxCell id="69SYTwjT6Idp93URx5pY-0" value="START" style="ellipse;whiteSpace=wrap;html=1;" vertex="1" parent="WIyWlLk6GJQsqaUBKTNV-1">
          <mxGeometry x="340" y="40" width="120" height="80" as="geometry" />
        </mxCell>
        <mxCell id="69SYTwjT6Idp93URx5pY-5" value="" style="edgeStyle=orthogonalEdgeStyle;rounded=0;orthogonalLoop=1;jettySize=auto;html=1;" edge="1" parent="WIyWlLk6GJQsqaUBKTNV-1" source="69SYTwjT6Idp93URx5pY-2" target="69SYTwjT6Idp93URx5pY-4">
          <mxGeometry relative="1" as="geometry" />
        </mxCell>
        <mxCell id="69SYTwjT6Idp93URx5pY-2" value="number" style="rounded=0;whiteSpace=wrap;html=1;" vertex="1" parent="WIyWlLk6GJQsqaUBKTNV-1">
          <mxGeometry x="340" y="160" width="120" height="60" as="geometry" />
        </mxCell>
        <mxCell id="69SYTwjT6Idp93URx5pY-26" value="" style="edgeStyle=orthogonalEdgeStyle;rounded=0;orthogonalLoop=1;jettySize=auto;html=1;" edge="1" parent="WIyWlLk6GJQsqaUBKTNV-1" source="69SYTwjT6Idp93URx5pY-4" target="69SYTwjT6Idp93URx5pY-25">
          <mxGeometry relative="1" as="geometry" />
        </mxCell>
        <mxCell id="69SYTwjT6Idp93URx5pY-4" value="number" style="shape=parallelogram;perimeter=parallelogramPerimeter;whiteSpace=wrap;html=1;fixedSize=1;" vertex="1" parent="WIyWlLk6GJQsqaUBKTNV-1">
          <mxGeometry x="340" y="270" width="120" height="60" as="geometry" />
        </mxCell>
        <mxCell id="69SYTwjT6Idp93URx5pY-30" style="edgeStyle=orthogonalEdgeStyle;rounded=0;orthogonalLoop=1;jettySize=auto;html=1;entryX=0.5;entryY=0;entryDx=0;entryDy=0;" edge="1" parent="WIyWlLk6GJQsqaUBKTNV-1" source="69SYTwjT6Idp93URx5pY-25" target="69SYTwjT6Idp93URx5pY-27">
          <mxGeometry relative="1" as="geometry" />
        </mxCell>
        <mxCell id="69SYTwjT6Idp93URx5pY-31" style="edgeStyle=orthogonalEdgeStyle;rounded=0;orthogonalLoop=1;jettySize=auto;html=1;entryX=0.5;entryY=0;entryDx=0;entryDy=0;" edge="1" parent="WIyWlLk6GJQsqaUBKTNV-1" source="69SYTwjT6Idp93URx5pY-25" target="69SYTwjT6Idp93URx5pY-28">
          <mxGeometry relative="1" as="geometry" />
        </mxCell>
        <mxCell id="69SYTwjT6Idp93URx5pY-25" value="number&amp;gt;5" style="rhombus;whiteSpace=wrap;html=1;" vertex="1" parent="WIyWlLk6GJQsqaUBKTNV-1">
          <mxGeometry x="360" y="380" width="80" height="80" as="geometry" />
        </mxCell>
        <mxCell id="69SYTwjT6Idp93URx5pY-37" style="edgeStyle=orthogonalEdgeStyle;rounded=0;orthogonalLoop=1;jettySize=auto;html=1;entryX=1;entryY=0.5;entryDx=0;entryDy=0;" edge="1" parent="WIyWlLk6GJQsqaUBKTNV-1" source="69SYTwjT6Idp93URx5pY-27" target="69SYTwjT6Idp93URx5pY-34">
          <mxGeometry relative="1" as="geometry" />
        </mxCell>
        <mxCell id="69SYTwjT6Idp93URx5pY-27" value="Đạt" style="rounded=0;whiteSpace=wrap;html=1;" vertex="1" parent="WIyWlLk6GJQsqaUBKTNV-1">
          <mxGeometry x="520" y="480" width="120" height="60" as="geometry" />
        </mxCell>
        <mxCell id="69SYTwjT6Idp93URx5pY-36" style="edgeStyle=orthogonalEdgeStyle;rounded=0;orthogonalLoop=1;jettySize=auto;html=1;entryX=0;entryY=0.5;entryDx=0;entryDy=0;" edge="1" parent="WIyWlLk6GJQsqaUBKTNV-1" source="69SYTwjT6Idp93URx5pY-28" target="69SYTwjT6Idp93URx5pY-34">
          <mxGeometry relative="1" as="geometry" />
        </mxCell>
        <mxCell id="69SYTwjT6Idp93URx5pY-28" value="Không đạt" style="rounded=0;whiteSpace=wrap;html=1;" vertex="1" parent="WIyWlLk6GJQsqaUBKTNV-1">
          <mxGeometry x="190" y="480" width="120" height="60" as="geometry" />
        </mxCell>
        <mxCell id="69SYTwjT6Idp93URx5pY-32" value="True" style="text;html=1;align=center;verticalAlign=middle;resizable=0;points=[];autosize=1;strokeColor=none;fillColor=none;" vertex="1" parent="WIyWlLk6GJQsqaUBKTNV-1">
          <mxGeometry x="460" y="388" width="50" height="30" as="geometry" />
        </mxCell>
        <mxCell id="69SYTwjT6Idp93URx5pY-33" value="Fail" style="text;html=1;align=center;verticalAlign=middle;resizable=0;points=[];autosize=1;strokeColor=none;fillColor=none;" vertex="1" parent="WIyWlLk6GJQsqaUBKTNV-1">
          <mxGeometry x="300" y="388" width="40" height="30" as="geometry" />
        </mxCell>
        <mxCell id="69SYTwjT6Idp93URx5pY-34" value="END" style="ellipse;whiteSpace=wrap;html=1;" vertex="1" parent="WIyWlLk6GJQsqaUBKTNV-1">
          <mxGeometry x="354" y="580" width="120" height="80" as="geometry" />
        </mxCell>
      </root>
    </mxGraphModel>
  </diagram>
</mxfile>
